# xmcd
#
# Track frame offsets: 
#        150
#        12772
#        25953
#        40389
#        50838
#        65416
#        78762
#        93440
#
# Disc length: 1396 seconds
#
# Revision: 0
# Processed by: cddbd v1.5.2PL0 Copyright (c) Steve Scherf et al.
# Submitted via: ExactAudioCopy v0.99pb4
#
DISCID=5e057208
DTITLE=Various Artist - #1 Country Gold Hits
DYEAR=1990
DGENRE=Classic Country
TTITLE0=Patsy Cline - I Fall To Pieces
TTITLE1=Freddy Fender - Wasted Days and Wasted Nights
TTITLE2=Lee Greenwood - God Bless the USA
TTITLE3=ferlin Husky - Wings Of a Dove
TTITLE4=Jeannie C. Riley - Harper Valley PTA
TTITLE5=Crystal Gayle - Talking In Your Sleep
TTITLE6=Glen Campbell - Rhinestone Cowboy
TTITLE7=Donna Fargo - Happiest Girl In the Whole USA
EXTD=
EXTT0=
EXTT1=
EXTT2=
EXTT3=
EXTT4=
EXTT5=
EXTT6=
EXTT7=
PLAYORDER=
